<?xml version="1.0" encoding="UTF-8" standalone="no"?>
<svg viewBox="0 0 500 500" xmlns="http://www.w3.org/2000/svg" xmlns:osb="http://www.openswatchbook.org/uri/2009/osb">
<defs>
<linearGradient osb:paint="gradient">
<stop offset="0" stop-color="#ffa52a"/>
<stop offset="1" stop-color="#ffa52a" stop-opacity="0"/>
</linearGradient>
<linearGradient>
<stop offset="0" stop-color="#ffa52a"/>
<stop offset="1" stop-color="#ed5d19"/>
</linearGradient>
</defs>
<g transform="translate(0,-552.36218)">
<path d="m385.87827,464.95847a78.7919,78.7919 0 1,1 -157.58381,0 78.7919,78.7919 0 1,1 157.58381,0z" fill="#ffeb64" transform="matrix(2.25029,0,0,1.96126,-449.65405,-150.70062)"/>
<path d="m141.51643,726.24268h76.68076v47.54207h-76.68076z" fill="#ffe8c6"/>
<path d="m183.69093,722.40863h76.68076v47.54207h-76.68076z" fill="#ffe8c6"/>
<path d="m226.63214,717.04102h76.68076v47.54207h-76.68076z" fill="#ffe8c6"/>
<path d="m257.30441,712.44006h76.68076v47.54207h-76.68076z" fill="#ffe8c6"/>
<path d="m274.17419,730.07666h76.68076v47.54207h-76.68076z" fill="#ffe8c6"/>
<path d="m140.79706,804.30902h22.77303v25.21299h-22.77303z" fill="#ffe8c6"/>
<path d="m149.20139,820.30438h22.77303v25.21299h-22.77303z" fill="#ffe8c6"/>
<path d="m151.6414,835.21521h22.77303v25.21299h-22.77303z" fill="#ffe8c6"/>
<path d="m328.13229,829.25073h22.77303v25.21299h-22.77303z" fill="#ffe8c6"/>
<path d="m331.38559,810.81555h22.77303v25.21299h-22.77303z" fill="#ffe8c6"/>
<path d="m335.18106,798.88684h22.77303v25.21299h-22.77303z" fill="#ffe8c6"/>
<path d="m254.93329,862.86816h22.77303v25.21299h-22.77303z" fill="#ffe8c6"/>
<path d="m239.20905,866.1214h22.77303v25.21299h-22.77303z" fill="#ffe8c6"/>
<path d="m234.32915,865.57928h22.77303v25.21299h-22.77303z" fill="#ffe8c6"/>
</g>
<g transform="translate(0,-552.36218)">
<path d="m178.62308,690.52592c-.89577.39294-1.78128.80854-2.63781,1.28115-1.25588.70536-2.54094,1.61-3.79622,2.46831-2.45759,1.68744-4.84869,3.45608-7.1395,5.36327-2.45838,2.10919-4.82627,4.31918-7.18179,6.54156-2.23135,2.12282-4.32708,4.3808-6.31371,6.73261-2.21246,2.55895-4.25657,5.23288-6.12162,8.05322-1.93143,2.98585-3.57479,6.13945-5.17139,9.31249-1.64293,3.13312-2.78106,6.45591-3.73094,9.85175-1.05372,3.74134-1.7768,7.55632-2.35267,11.39623-.52674,3.46519-.87076,6.94809-1.03267,10.44808-.10027,3.00135.0932,6.00138.38132,8.98725 .30492,2.85377.91469,5.66011 1.64864,8.43063 .72803,2.80537 1.56465,5.58288 2.48022,8.33245 1.09917,3.11693 2.31146,6.19203 3.46076,9.29057 1.17988,3.02141 2.28869,6.0694 3.43088,9.10491 1.00564,2.60537 2.02208,5.20598 2.98233,7.82872 .96002,2.70663 1.86689,5.43198 2.71009,8.17719 .70681,2.3181 1.30326,4.66737 1.8224,7.03397 .44904,2.09596.79738,4.21127 1.11216,6.33093 .27632,1.88658.48702,3.78171.67546,5.67879 .16425,1.66805.21501,3.34898.17692,5.02433-.0657,1.50686-.15716,3.01242-.23089,4.51888-.0977,1.4953-.0876,2.99474.0172,4.48901 .23343,1.77131.93696,3.39869 1.78239,4.95323 1.02277,1.79752 2.56284,3.19141 4.0436,4.601 1.40572,1.36448 2.97175,2.53573 4.62026,3.5868 1.65708,1.06022 3.46259,1.81427 5.29719,2.50231 2.15754.79203 4.35419,1.46511 6.55878,2.11157 2.27882.65436 4.59488,1.1612 6.92322,1.60195 2.68513.45642 5.39868.72143 8.10782.98919 2.4257.23671 4.85542.42815 7.28637.60167 2.17173.15738 4.3464.2665 6.52144.36505 2.12173.0562 4.23828.18464 6.35479.33769 2.145.15566 4.29245.27375 6.44026.38213 2.01053.10993 4.00266.40541 5.99889.6541 1.88029.23598 3.7589.50207 5.62773.81737 1.78878.3239 3.56268.72068 5.35159,1.04581 1.78977.38336 3.58909.71501 5.39608,1.00566 1.73485.27495 3.47948.47972 5.22612.66228 1.6586.17005 3.3214.29344 4.98492.40333 1.61014.10413 3.22198.17863 4.83408.24483 1.58035.0636 3.16136.10864 4.74245.14857 1.61629.0515 3.2309.0773 4.84706.0193 1.67054-.082 3.34029-.23835 5.00059-.44152 1.82571-.19925 3.63517-.50325 5.43756-.85103 1.8433-.36357 3.69031-.71897 5.52298-1.13372 1.76363-.40794 3.52373-.83005 5.29456-1.20607 1.67757-.3288 3.3398-.7304 4.99001-1.17523 1.61234-.38834 3.19435-.8865 4.78608-1.34907 1.57792-.4623 3.16571-.88987 4.74681-1.34084 1.56201-.43091 3.12459-.86026 4.69062-1.27662 1.57429-.37 3.10297-.90125 4.65459-1.35247 1.52502-.39292 3.03586-.83669 4.55667-1.24556 1.69693-.46892 3.37576-.99595 5.05918-1.51005 1.55628-.46711 3.14154-.82344 4.71044-1.24396 1.51767-.39762 3.04224-.76889 4.5583-1.17253 1.54573-.40262 3.09647-.77889 4.62277-1.25165 1.46582-.42843 2.88438-1.00579 4.25088-1.6847 .95248-.49734 1.87177-1.18601 2.72597-1.98448 1.0213-1.01369 1.87458-2.16609 2.63207-3.38467 .74196-1.22683 1.2746-2.55803 1.74408-3.90774 .47252-1.35518.74541-2.7652 1.08987-4.15486 .36261-1.34791.65562-2.71196.90739-4.0844 .29483-1.5505.44302-3.1182.51104-4.69309 .0554-1.70161.0732-3.40419.0927-5.10653 .0172-1.6422.0303-3.28444.0412-4.92671 .0129-1.76115.0193-3.52232.0249-5.28351-.0107-1.74107.12196-3.47906.22083-5.21635 .10005-1.53285.34559-3.04683.58952-4.56128 .30471-1.44397.56557-2.89695.86679-4.34147 .28541-1.42951.63338-2.84558 1.01983-4.25094 .41058-1.42765.83085-2.85463 1.33174-4.25357 .53204-1.46013 1.05133-2.9249 1.58549-4.38423 .49692-1.44298 1.05762-2.86247 1.55033-4.30686 .52554-1.4054.97326-2.83599 1.36014-4.28512 .34862-1.4734.67895-2.95181.99585-4.43248 .39949-1.60817.74213-3.22781 1.03437-4.85861 .31139-1.75703.51336-3.53028.68708-5.30532 .18401-1.9125.30969-3.82965.41849-5.74764 .10971-1.96096.18507-3.92357.25404-5.8863 .0548-1.99832.14063-3.99674.12689-5.99604-.009-2.12776-.13462-4.24985-.28249-6.37147-.11852-2.09806-.2899-4.19074-.49198-6.28217-.17713-1.92078-.45913-3.82993-.69245-5.7444-.20891-1.79741-.46069-3.59169-.82303-5.36492-.45853-2.00154-1.20633-3.92037-1.94863-5.82983-.70372-1.86406-1.49466-3.69132-2.36849-5.4816-.79561-1.7272-1.80656-3.339-2.88058-4.90374-1.0667-1.58569-2.15383-3.15687-3.24735-4.72413-1.14062-1.49618-2.34098-2.95056-3.59175-4.35629-1.4845-1.62663-3.02682-3.19901-4.59102-4.74867-1.56849-1.55224-3.25411-2.97207-4.98472-4.33846-1.99772-1.58112-4.13992-2.95996-6.30657-4.29458-2.38141-1.47086-4.86039-2.76371-7.37157-3.9955-2.39835-1.23965-4.84005-2.38857-7.3098-3.47766-2.52707-1.11289-5.10479-2.10339-7.70679-3.02536-2.40967-.80921-4.83404-1.57487-7.27358-2.28927-2.36494-.69936-4.77497-1.22575-7.16062-1.84593-2.27949-.60562-4.57899-1.12921-6.88938-1.60162-1.96961-.46626-3.94596-.89653-5.93615-1.26514-1.83724-.33541-3.68758-.58999-5.54084-.8176-1.87698-.20912-3.75957-.35027-5.63571-.56751-1.78702-.21767-3.57787-.4006-5.37085-.56113-1.71106-.1518-3.42534-.26109-5.14039-.35487-1.7373-.093-3.47582-.15888-5.21459-.2158-1.85751-.0597-3.71564-.0964-5.57373-.13097-1.82058-.0331-3.64129-.0582-5.46202-.0797-1.84583-.0215-3.69172-.0354-5.53763-.0483l-5.33234-.0294-5.3406-.0172c-2.03726-.0393-4.07177.0193-6.10684.10521-1.99048.05-3.97254.23628-5.95541.40414-1.74999.149-3.49727.36013-5.23368.62481-1.58629.20548-3.14197.55931-4.6898.95341-1.59819.37569-3.13506.94245-4.67978,1.4881-1.42106.5334-2.82702,1.09397-4.20893,1.72148-1.29919.58256-2.58461,1.1952-3.88356,1.7789-1.34041.60865-2.66858,1.24122-3.98737,1.8951-1.30121.61488-2.60323,1.22838-3.86527,1.92096-.52298.2786-1.43946.79875-1.76001.97693l-.71454.27489c1.01605-.59087 2.03543-1.17537 3.07066-1.73221 1.26472-.68794 2.5664-1.30221 3.86713-1.91857 1.31884-.65421 2.64883-1.28366 3.98918-1.89287 1.2982-.58518 2.5841-1.19675 3.88339-1.77905 1.38269-.62675 2.79135-1.18331 4.2129-1.71623 1.54524-.54675 3.08528-1.10664 4.68405-1.48266 1.54904-.39381 3.10749-.73979 4.69429-.94728 1.73783-.261 3.48535-.47442 5.23653-.62065 1.98342-.1679 3.96619-.35115 5.95718-.40148 2.03578-.0861 4.0711-.14042 6.10901-.10263 1.78028.004 3.56056.0107 5.34081.0172l5.33236.0296c1.846.0129 3.69196.0273 5.53787.0485 1.82084.0215 3.64161.0468 5.46228.0801 1.85834.0348 3.71671.0717 5.57443.13183 1.73912.0573 3.47799.12367 5.2156.21716 1.71559.0945 3.43038.20461 5.14194.35701 1.79331.16146 3.58445.34529 5.3719.56281 1.87634.21627 3.75931.35583 5.6361.56794 1.85414.22879 3.70536.48466 5.54339.82149 1.99022.37002 3.96635.80263 5.93678,1.26642 2.31105.4739 4.61113.99905 6.89148,1.60501 2.38661.61866 4.79671,1.14735 7.16185,1.84796 2.44031.71566 4.86584,1.48143 7.27592,2.29285 2.60299.92385 5.18178,1.91593 7.70999,3.03008 2.47026,1.09004 4.91179,2.24125 7.3113,3.48039 2.51262,1.23378 4.99299,2.52874 7.37573,4.00156 2.16843,1.33706 4.31248,2.71816 6.3117,4.30185 1.73206,1.36897 3.41941,2.79103 4.98936,4.3457 1.56484,1.55127 3.10837,3.12466 4.59366,4.75269 1.25223,1.40843 2.45484,2.86478 3.59652,4.36394 1.09361,1.56744 2.18047,3.13903 3.24741,4.72481 1.07587,1.568 2.08926,3.18271 2.88638,4.9134 .87489,1.7921 1.66692,3.62123 2.37147,5.48724 .74385,1.91335 1.49344,3.83594 1.95497,5.84108 .36425,1.77485.61678,3.57104.82593,5.37038 .23304,1.91514.51542,3.82484.6932,5.74614 .20225,2.0921.37505,4.18527.49284,6.28404 .14814,2.12303.27534,4.24641.28478,6.37561 .015,2.00027-.0713,3.99966-.12539,5.99893-.0687,1.96323-.14385,3.92634-.25331,5.88781-.10842,1.91889-.23351,3.83697-.41702,5.75038-.17305,1.77678-.3738,3.55184-.68423,5.31072-.29116,1.63166-.6311,3.2526-1.03316,4.86086-.31571,1.48194-.64887,2.96069-.99413,4.43589-.38523,1.45088-.83019,2.88383-1.35791,4.28983-.49091,1.44555-1.05339,2.86478-1.54964,4.30849-.53559,1.45869-1.05262,2.92414-1.5857,4.38378-.50367,1.39645-.92224,2.82251-1.33411,4.24828-.38862,1.40345-.73589,2.81856-1.02196,4.24661-.30323,1.44313-.55936,2.89613-.86838,4.33827-.24311,1.51239-.49192,3.02362-.59315,4.55428-.0988,1.73616-.23145,3.47294-.2228,5.21281-.006,1.76121-.0129,3.52244-.0245,5.28364-.0107,1.64237-.0234,3.28472-.0412,4.92705-.0193,1.70303-.0371,3.40629-.0917,5.10865-.0666,1.57794-.21148,3.1488-.5061,4.70246-.25059,1.37394-.54164,2.7398-.90529,4.08875-.34768,1.39063-.61576,2.80355-1.08695,4.16109-.46763,1.35424-.99802,2.69029-1.7371,3.92311-.75459,1.22445-1.60588,2.38148-2.6241,3.40301-1.19469,1.13298-2.56909,1.99715-4.03227,2.75324-1.37083.67295-2.79062,1.24843-4.25839,1.67507-1.52772.46892-3.07889.84532-4.62456,1.24919-1.51672.40117-3.04056.77519-4.55825,1.17272-1.56864.41977-3.15393.77513-4.7087,1.246-1.68338.51526-3.36339,1.03965-5.0608,1.50801-1.52029.40986-3.03162.85131-4.55574,1.24685-1.55123.45313-3.08114.98107-4.65566,1.35106-1.56551.4176-3.12851.84486-4.68983,1.27765-1.58174.4486-3.16825.88023-4.74651,1.34118-1.59157.46381-3.17494.95787-4.78706,1.34786-1.65101.44382-3.31457.84169-4.99231,1.17185-1.77038.37743-3.53028.80003-5.29407,1.20684-1.83387.41105-3.68022.77032-5.52435,1.13176-1.80347.34681-3.61449.64669-5.44087.84684-1.66193.19968-3.33243.35871-5.00452.43628-1.61708.0554-3.23272.0266-4.84984-.0236-1.58134-.0404-3.16256-.0857-4.74314-.14965-1.61247-.0668-3.22467-.1415-4.83518-.2464-1.66408-.11057-3.32743-.23467-4.98655-.40575-1.74745-.18358-3.49291-.38954-5.22851-.66581-1.80714-.29189-3.60633-.62591-5.39696-1.00692-1.78839-.32625-3.56193-.72389-5.35099-1.04496-1.86852-.31263-3.74593-.58056-5.62575-.81479-1.9949-.24899-3.98609-.54243-5.99554-.64959-2.14814-.10886-4.29591-.22742-6.44121-.38349-2.1161-.15287-4.23237-.27795-6.35356-.33603-2.17542-.099-4.35044-.20891-6.52254-.36672-2.43124-.17413-4.86126-.3662-7.28725-.6036-2.71067-.26867-5.42584-.53437-8.11201-.99457-2.32977-.44287-4.64733-.95157-6.92743-1.60812-2.20571-.64797-4.40373-1.32191-6.56206-2.11617-1.83816-.69157-3.64653-1.45113-5.30627-2.51547-1.65096-1.05574-3.2193-2.2314-4.62788-3.5994-1.48646-1.41517-3.02966-2.81686-4.05604-4.62136-.85077-1.56394-1.55801-3.20075-1.79833-4.98178-.10757-1.49678-.11874-2.99919-.0215-4.49719 .0734-1.50595.16425-3.01098.23181-4.51719 .0412-1.67245-.0107-3.35081-.1724-5.01609-.18787-1.896-.39794-3.79006-.6736-5.67558-.31395-2.11814-.66145-4.23195-1.10947-6.32645-.51792-2.36482-1.11338-4.71226-1.8191-7.0286-.84229-2.74414-1.74865-5.46826-2.70788-8.17377-.96008-2.62258-1.97682-5.22284-2.98205-7.8281-1.14226-3.03565-2.25031-6.08407-3.43072-9.10541-1.14961-3.09933-2.36199-6.17527-3.46223-9.2927-.91703-2.75071-1.75389-5.5298-2.48269-8.33654-.73586-2.77411-1.34747-5.58408-1.65448-8.44161-.28972-2.98907-.48388-5.99236-.38604-8.99706 .16081-3.50242.50273-6.98776 1.02969-10.45535 .57481-3.84262 1.29532-7.66063 2.34862-11.40479 .94806-3.39989 2.08053-6.72807 3.72432-9.86495 1.59619-3.17533 3.23856-6.33145 5.16793-9.3208 1.86329-2.82341 3.90304-5.50193 6.11777-8.06131 1.98443-2.35522 4.07987-4.61505 6.31026-6.74055 2.3555-2.22326 4.72334-4.43405 7.18012-6.54596 2.28937-1.90986 4.67806-3.68183 7.1361-5.36974 1.66125-1.13704 3.32554-2.27896 5.10414-3.22832 .85958-.46812 1.74638-.88105 2.64027-1.27939l-.59856.47877z" fill="none" stroke="#000" stroke-linecap="round" stroke-linejoin="round" stroke-width=".85882"/>
<path d="m134.34703,765.38974c.5408-.62035 1.08618-1.23698 1.61652-1.86633 .85292-.98591 1.69253-1.98184 2.50764-2.99951 .85543-1.08716 1.6191-2.23932 2.38002-3.39334 .8982-1.30894 1.74496-2.65132 2.60522-3.98516 .98997-1.61309 2.067-3.16982 3.1652-4.71035 1.12001-1.54789 2.38079-2.98481 3.62434-4.43272 1.269-1.44602 2.61216-2.82435 3.97342-4.18303 1.25245-1.20167 2.52183-2.38387 3.8789-3.46695 1.54529-1.1905 3.2321-2.19043 4.99132-3.02925 2.31655-.83868 4.76184-1.23709 7.18035-1.66032 2.44928-.42016 4.91065-.76905 7.38654-.98421 2.36284-.21731 4.73442-.13269 7.09999-.0281 2.36367.0371 4.70676.2908 7.04384.62606 2.35032.30156 4.68057.7221 6.99517,1.2266 2.20849.47001 4.37084,1.12536 6.55328,1.69946 2.28752.60554 4.53075,1.35435 6.77112,2.11187 2.71127.97683 5.44033,1.90028 8.19579,2.74429 2.45359.77464 4.95799,1.34432 7.4874,1.8019 2.51597.43824 5.04686.78228 7.5807,1.09799 2.18094.25638 4.36343.51254 6.55635.63772 2.00151.094 4.0036.12882 6.00634.0715 2.08739-.0107 4.16057-.21928 6.22564-.50681 2.18843-.28408 4.35707-.68317 6.52073-1.11231 2.1382-.43989 4.25239-.9791 6.35885-1.54914 2.03861-.53836 4.04476-1.18027 6.04507-1.84397 1.8344-.56817 3.6315-1.24525 5.42317-1.93383 1.72994-.62239 3.41806-1.34868 5.10666-2.07331 1.64886-.6902 3.28567-1.40903 4.92757-2.11584 1.66752-.67435 3.2911-1.44994 4.94389-2.15847 1.47321-.63735 2.89754-1.37663 4.33172-2.09536 1.36991-.68729 2.70506-1.43922 4.09034-2.09564 1.2585-.67024 2.56314-1.2381 3.90181-1.72587 1.49296-.51048 3.04035-.83035 4.59195-1.10017 1.76915-.30147 3.56401-.41134 5.3561-.36292 2.35043.13934 4.64957.72695 6.89565,1.4037 2.47125.76315 4.8783,1.69412 7.22667,2.77439 2.32541,1.1122 4.52192,2.46494 6.69683,3.84219 1.98912,1.28553 3.89591,2.6919 5.74972,4.16457 1.79243,1.4223 3.4476,3.00088 5.06112,4.61979 1.47823,1.51419 2.89682,3.08314 4.28783,4.67735 1.13986,1.39065 2.2296,2.82246 3.3238,4.24931 .94836,1.23613 1.69766,2.60486 2.46397,3.95665 .48058.84234.87203,1.72864 1.24369,2.62274l-.66789.37415c-.37011-.89139-.76002-1.77502-1.23905-2.61465-.76452-1.34876-1.51194-2.7145-2.45847-3.94758-1.09335-1.42548-2.18161-2.85643-3.32105-4.24532-1.39016-1.59274-2.80756-3.1605-4.28502-4.67315-1.61182-1.61658-3.26568-3.19242-5.05648-4.61223-1.85255-1.47009-3.75729-2.87489-5.74504-4.15785-2.17285-1.37489-4.36734-2.72528-6.69138-3.83358-2.34655-1.07698-4.75177-2.00496-7.22061-2.76565-2.24274-.6716-4.53773-1.25689-6.88443-1.38665-1.78951-.0423-3.58136.0704-5.34721.37522-1.54926.27312-3.09471.59456-4.58387,1.11112-1.33663.49164-2.63771,1.06518-3.89737,1.73143-1.38324.66001-2.7188,1.4112-4.08929,2.09687-1.43385.71995-2.86036,1.45564-4.33442,2.09169-1.65176.71074-3.2767,1.48316-4.94374,2.15846-1.6416.70754-3.27904,1.42496-4.92766,2.1158-1.68862.72528-3.37898,1.44675-5.10844,2.07095-1.79206.68862-3.59102,1.36136-5.4253,1.93098-2.00061.66426-4.00886,1.30114-6.0476,1.84048-2.10728.56966-4.22289,1.1063-6.36196,1.54494-2.16441.429-4.33447.824-6.52342,1.10876-2.06704.28453-4.14196.489-6.23081.50023-2.00398.0554-4.00747.0193-6.01006-.0769-2.19371-.12925-4.3773-.38398-6.55912-.64197-2.53461-.31673-5.06627-.66175-7.58288-1.10159-2.53122-.45999-5.03707-1.03356-7.49254-1.80933-2.75556-.84554-5.4846-1.77068-8.19692-2.74616-2.23932-.75664-4.48212-1.50294-6.76863-2.10723-2.18133-.57483-4.34325-1.22868-6.55127-1.69682-2.3138-.50194-4.643-.92053-6.99197-1.22213-2.33572-.33359-4.67776-.58093-7.03961-.61984-2.36368-.10349-4.73328-.18357-7.09391.0361-2.47438.21907-4.93459.56786-7.3825.98941-2.4154.42428-4.86045.82085-7.16816,1.67733-1.30277.6281-2.55084,1.3519-3.68251,2.26734-1.35993,1.0784-2.62854,2.25993-3.88232,3.45909-1.36248,1.35632-2.70435,2.73473-3.97569,4.17756-1.24229,1.44763-2.50532,2.88112-3.62714,4.42642-1.09815,1.53968-2.17823,3.09366-3.1665,4.70702-.86048,1.33378-1.70533,2.67745-2.60463,3.9857-.7601,1.15604-1.52404,2.30938-2.37711,3.39977-.81327,1.01953-1.6529,2.01579-2.50678,3.00116-.5278.63016-1.07049,1.24899-1.61749,1.86217l-.70398.30335z" fill="none" stroke="#000" stroke-linecap="round" stroke-linejoin="round" stroke-width=".85882"/>
<path d="m275.39913,816.56852c.70966.31312 1.38642.693 2.06646,1.06498 1.38082.75313 2.77529,1.48195 4.19362,2.16194 1.47088.71427 3.02905,1.20903 4.57294,1.73401 1.50305.5276 3.03989.94499 4.58908,1.31113 1.5674.3682 3.16035.60575 4.75439.82232 1.573.19903 3.15884.13011 4.73854.0852 1.48126-.0627 2.94577-.27459 4.40895-.499 1.33912-.15631 2.63689-.51864 3.93696-.85934 1.21906-.38626 2.44617-.74501 3.66879-1.11956 1.21629-.40548 2.40714-.87832 3.60891-1.3233 1.20716-.42104 2.35582-.9674 3.46156-1.60596 .6255-.34722 1.38975-.97631 2.25278-1.64506 .89885-.69556 1.63151-1.57057 2.40267-2.39826 .52594-.54029.96102-1.15218 1.37083-1.78185l.70117-.30798c-.4071.63412-.8389,1.25131-1.36547,1.79435-.77433.82681-1.50219,1.70807-2.39805,2.40969-1.13665.8786-2.26575,1.76368-3.55914,2.41082-1.11005.6327-2.26122,1.17552-3.46944,1.59604-1.20139.44717-2.39386.91736-3.61159,1.31978-1.22286.37499-2.44993.73531-3.67072,1.11707-1.30108.34154-2.60175.69563-3.94169.8529-1.46472.22426-2.93166.43154-4.41446.49129-1.5823.0442-3.17083.10929-4.74585-.0955-1.59563-.21808-3.19001-.45782-4.75868-.82838-1.55056-.36844-3.08852-.78855-4.59316-1.31714-1.54657-.52495-3.10549-1.02517-4.57799-1.74167-1.41878-.68195-2.81441-1.4112-4.19626-2.16505-.67787-.37044-1.35275-.74894-2.06199-1.05692l.63684-.42666z" fill="none" stroke="#000" stroke-linecap="round" stroke-linejoin="round" stroke-width="5.15295"/>
<path d="m166.80418,815.60369c.67475.38259 1.31009.82829 1.94949,1.26647 1.29849.88755 2.61303,1.75228 3.95617,2.57082 1.392.85791 2.89282,1.50615 4.37642,2.18301 1.4427.67538 2.93005,1.2445 4.43482,1.76385 1.52267.52324 3.08385.91903 4.64819,1.29406 1.5452.35549 3.12997.44562 4.70623.55909 1.4801.0859 2.95846.0217 4.43676-.0552 1.34803-.0215 2.67556-.25213 4.00319-.46097 1.25159-.26231 2.50846-.49645 3.76243-.74675 1.25077-.28169 2.48294-.63298 3.72324-.95544 1.24323-.2981 2.4408-.72674 3.60491-1.25144 .65711-.28285 1.48049-.83231 2.40611-1.41131 .96396-.6021 1.78051-1.39939 2.63064-2.14575 .57739-.48493 1.07154-1.05019 1.5423-1.63569l.72848-.23624c-.46854.59018-.95993,1.16106-1.5382,1.64866-.85322.74516-1.66563,1.54915-2.62721,2.15758-1.21889.76041-2.4309,1.52804-3.78256,2.04248-1.16781.51841-2.36753.94329-3.61177,1.24077-1.2401.32467-2.47365.67314-3.72554.95168-1.25425.25069-2.51122.4864-3.7641.74406-1.32873.20956-2.65832.43174-4.00725.45409-1.47982.0764-2.96013.13591-4.44148.047-1.57877-.11444-3.16584-.2087-4.71245-.57009-1.56579-.37668-3.12816-.77479-4.65187-1.3005-1.5059-.52178-2.9941-1.09373-4.43827-1.77025-1.48626-.67712-2.98728-1.33086-4.38068-2.19114-1.34339-.82052-2.65902-1.68581-3.95849-2.57418-.63738-.43643-1.271-.88057-1.94586-1.25798l.67635-.36079z" fill="none" stroke="#000" stroke-linecap="round" stroke-linejoin="round" stroke-width="5.15295"/>
<path d="m229.36821,854.17848c.79757.64172 1.60132,1.27437 2.42208,1.88682 1.13779.85361 2.3324,1.61964 3.56683,2.32505 1.36529.75399 2.73888,1.48424 4.16837,2.10943 1.29433.61955 2.62706,1.15101 3.94675,1.71271 1.36647.62052 2.81518.9843 4.27478,1.30434 1.50049.34234 3.0333.48167 4.56963.4547 1.2682-.0247 2.51913-.25144 3.73758-.5922l.56597-.16747c.74355-.24324 1.42328-.59517 2.11062-.96311 .0528-.0281-.10628.055-.15952.0824 .98208-.56698 1.88018-1.26666 2.78802-1.94357 .94638-.6524 1.80368-1.41968 2.64018-2.20488 .87037-.75709 1.62998-1.62721 2.42253-2.46235 .65062-.68447 1.28866-1.3732 1.85774-2.12757l.70329-.3031c-.56543.75944-1.20169,1.45075-1.85426,2.13585-.79515.83336-1.54907,1.70984-2.42094,2.46622-.83388.78892-1.6903,1.55972-2.63687,2.21292-.90585.68029-1.80661,1.37811-2.78511,1.95114-1.22408.7146-2.44569,1.4536-3.83892,1.78998-1.22374.33312-2.47745.55731-3.74909.57651-1.5402.0193-3.07603-.12346-4.57973-.46928-1.46281-.32301-2.91354-.69325-4.28296-1.31598-1.31977-.56208-2.65241-1.09421-3.94711-1.71344-1.43048-.62845-2.80587-1.36064-4.17279-2.1163-1.23594-.70842-2.43237-1.47696-3.57213-2.33269-.82078-.61264-1.62338-1.24702-2.42286-1.88652l.64784-.40976z" fill="none" stroke="#000" stroke-linecap="round" stroke-linejoin="round" stroke-width="3.86471"/>
<path d="m211.79087,675.24874c-.45138-.57193-.7665-1.2367-1.0657-1.91533-.4468-1.10195-.82821-2.2353-1.15127-3.39033-.34336-1.30668-.57763-2.6475-.70475-4.00359-.1211-1.42438-.0376-2.85969.11787-4.28051 .16725-1.45478.50842-2.87893.92549-4.27179 .3886-1.40862 1.0153-2.71058 1.68946-3.97623 .72792-1.38576 1.71005-2.55601 2.7497-3.65911 1.12952-1.19226 2.38841-2.21486 3.68622-3.1662 1.36942-1.09181 2.87762-1.92268 4.38029-2.75453 1.80943-1.09219 3.71486-1.94056 5.63337-2.75204 1.7555-.73876 3.5606-1.30973 5.35883-1.89697 1.77957-.61688 3.61067-.96968 5.44718-1.27147 1.84014-.29217 3.69037-.4794 5.54169-.63439 1.71145-.13892 3.42547-.21106 5.13947-.26231 1.72561-.12925 3.42177.19903 5.11088.50668 1.71632.28627 3.42029.63736 5.12203,1.00779 1.62795.31523 3.2355.73327 4.85021,1.11596 1.54701.3107 3.05042.80759 4.55504,1.29474 1.46232.51478 2.93108,1.00337 4.36053,1.62017 1.29904.53028 2.55621,1.16184 3.7962,1.83744 1.28572.7423 2.51502,1.58874 3.70205,2.50686 1.18975.83832 2.31178,1.77448 3.40378,2.7585 .99834.89758 1.91039,1.88873 2.74154,2.97379 .84499,1.01247 1.52988,2.16542 2.20632,3.31867 .72542,1.06303 1.27099,2.24327 1.79095,3.44032 .55898,1.27113.94107,2.62133 1.26189,3.98888 .31081,1.42438.52723,2.87468.63503,4.33799 .0895,1.33263-.0285,2.66841-.21384,3.98851-.15824,1.19548-.60137,2.28739-1.03643,3.38535-.41518,1.05604-.9747,2.01807-1.60177,2.93439-.66832.93546-1.47903,1.73652-2.32431,2.47033l-.44837.34387-.71147.25872 .44968-.33913c.84749-.72521 1.65738-1.52351 2.33049-2.44992 .63014-.90873 1.19074-1.86516 1.60795-2.91578 .43257-1.09296.88343-2.17544 1.04356-3.36547 .18658-1.31398.308-2.64362.22076-3.97074-.10499-1.45903-.32131-2.90476-.62977-4.32504-.31886-1.36271-.69887-2.70815-1.25586-3.97453-.51869-1.19398-1.06342-2.37059-1.78683-3.431-.67512-1.15023-1.35888-2.29968-2.20207-3.30946-.82952-1.0803-1.73983-2.06672-2.73523-2.96063-1.09079-.98282-2.21418-1.91393-3.40114-2.75328-1.18567-.91401-2.41233-1.75855-3.69672-2.49609-1.23864-.67426-2.49605-1.30073-3.79291-1.83138-1.42917-.61238-2.89609-1.10183-4.35736-1.61418-1.50333-.48693-3.00674-.97818-4.5522-1.28963-1.61426-.38332-3.22203-.79873-4.84948-1.11482-1.70122-.37026-3.40526-.718-5.12078-1.00566-1.68686-.30596-3.38072-.62458-5.10357-.49346-1.71333.0522-3.42673.12539-5.13742.26561-1.8504.15631-3.69967.34501-5.53871.63927-1.83499.30423-3.66368.6632-5.44156,1.28113-1.79741.58812-3.60169,1.15999-5.35548,1.90227-1.45508.61674-2.91931,1.22735-4.30213,2.0326-1.50288.82924-3.01383,1.65395-4.38282,2.74496-1.29978.94468-2.55843,1.96533-3.69028,3.15195-1.041,1.09556-2.02601,2.25802-2.75637,3.63748-.67644,1.25908-1.30512,2.55621-1.69511,3.95968-.42007,1.387-.761,2.80683-.93103,4.25644-.15845,1.41474-.2421,2.84466-.12453,4.26353 .12389,1.35123.35794,2.68685.69876,3.98885 .32142,1.15121.70151,2.28067 1.14664,3.37887 .29821.67605.61404,1.33573 1.06245,1.90655l-.66928.37679z" fill="none" stroke="#000" stroke-linecap="round" stroke-linejoin="round" stroke-width=".88016"/>
<path d="m284.96454,679.21864c-6.98872-1.56233-9.45651-1.97813-15.00066-2.5275-1.34431-.13312-3.86758-.38933-5.60728-.56914-7.58158-.78366-12.29154-.95407-30.57645-1.1063-12.68102-.10563-16.9319-.0331-20.60797.35165-.5668.0593-.57269.0575-.40736-.12861 .23512-.26463.21041-.47375-.11573-.9822-.71884-1.12023-1.62434-3.52249-2.07544-5.50605-.82073-3.60897-.76139-6.70027.19904-10.36352 .4684-1.78668.84394-2.79331 1.59651-4.27916 .87602-1.72961 1.60263-2.73374 3.08795-4.26733 1.24705-1.28757 3.46452-3.11021 4.99988-4.1096 1.04998-.68345 3.75341-2.19689 4.74462-2.65617 2.5827-1.19662 6.91208-2.78397 9.34547-3.42646 3.3962-.89672 8.20532-1.4775 13.94632-1.6843 1.97098-.0711 2.83936.0107 5.79898.54499 9.13985,1.65023 15.66814,3.53305 20.5135,5.91625 1.94482.95658 3.27416,1.7975 5.55796,3.51592 3.77048,2.83706 5.53159,4.71975 7.63601,8.16315 2.27015,3.71456 3.28045,6.60511 3.7753,10.80133 .24183,2.0508.10435,4.57953-.33421,6.14658-.69009,2.46592-2.35771,5.39297-3.69657,6.48836l-.28756.23525-2.49214-.55712z" fill="#666"/>
<path d="m133.81009,762.12613c.2689-8.55697 2.05515-18.61503 4.60882-25.95158 1.0594-3.04354 3.38725-7.86797 5.76271-11.94316 3.91021-6.70802 9.50481-13.42948 16.58521-19.9258 6.21353-5.70096 11.72427-9.86222 16.40409-12.38713 1.75011-.94423 2.58384-1.54725 2.58384-1.86884 0-.26113-.11895-.51545-.26418-.56515s-.18744-.38246-.0938-.73947c.13934-.53017 1.3175-1.20753 6.43188-3.69765 16.79932-8.17934 19.99754-8.71726 50.18082-8.4401 9.54298.0876 19.11984.28857 21.28193.44653 5.26447.38464 13.84382,1.27443 17.35088,1.79949 3.80111.5691 11.46434,2.23067 11.64722,2.52538 .0803.12925.57295.23806 1.09483.24158 1.23791.009 8.47437,1.88016 13.96202,3.61149 5.83091,1.83962 9.91176,3.49623 16.46622,6.68447 11.05548,5.37759 16.05335,8.90002 22.99965,16.2098 3.5808,3.76817 5.3208,5.93312 8.04156,10.0055 3.2637,4.88503 5.97568,10.65545 7.38524,15.71397 .57664,2.0694 1.76165,10.45134 2.03284,14.37896 .0928,1.34198.23564,2.92795.31772,3.52438l.14923,1.08444-.87639-1.62664c-1.79587-3.33331-4.95291-7.40511-9.20568-11.87308-6.95553-7.30748-15.61555-13.00082-24.19186-15.90444-4.79149-1.62221-7.03646-2.00222-10.90089-1.84521-5.074.20612-7.39304.89887-14.09496,4.21022-13.81587,6.82626-25.79796,11.49039-35.78175,13.92833-10.93322,2.66981-18.44944,2.98547-30.79558,1.29335-7.46943-1.02374-8.34142-1.23916-18.57086-4.58767-14.84126-4.85818-22.07634-6.27283-32.26178-6.30809-4.32002-.015-6.22118.10392-9.3532.58499-10.2724,1.57768-12.54537,2.62804-18.79111,8.68357-4.34144,4.20923-6.95194,7.45185-11.53983,14.33409-2.11528,3.17312-4.83868,6.94999-6.05196,8.39305s-2.30517,2.99477-2.42644,3.44831c-.12453.46613-.16232-1.02842-.0865-3.43789z" fill="#666" stroke="#666" stroke-linecap="round" stroke-linejoin="round" stroke-width=".0282"/>
</g>
<g transform="translate(0,-552.36218)">
<path d="m141.82174,803.04778c-1.14698-.69536-2.3603-1.26994-3.60968-1.75399-1.20869-.48363-2.4402-.70478-3.73138-.55581-1.31284.31596-1.27597.3184-2.08271,1.04117-.76899.7463-1.26999,1.68817-1.70642,2.65325-.4724,1.09852-.77114,2.25785-1.03632,3.42036-.29029,1.27956-.47579,2.57465-.56109,3.88287-.0247,1.28474.0507,2.56746.19409,3.84343 .17799,1.34471.5954,2.63505 1.06677,3.90124 .59664,1.5251 1.31149,2.99283 2.08801,4.43263 .74029,1.39453 1.6491,2.68649 2.54419,3.9834 .81399,1.15112 1.68452,2.25933 2.54746,3.37355 .94948,1.07297 1.91608,2.12919 2.86813,3.19993 .92537,1.01625 1.66359,2.17811 2.40774,3.3281 .725,1.11825 1.25549,2.33929 1.71836,3.58413 .48495,1.32497.78979,2.70221 1.05936,4.08386 .28794,1.57861.24695,3.18006.16575,4.77399-.10971,1.71978-.43435,3.41308-.714,5.11039-.26287,1.55604-.51904,3.10942-.40498,4.6894 .18958,1.50026.8267,2.89362 1.5509,4.20524 .68034,1.15967 1.49883,2.20599 2.47235,3.13022 .71239.65067 1.53368,1.11995 2.4878,1.27759 .0427.28291 1.38397-.38899 1.24323-.33986-.13226.0462-.23062.21406-.36987.19924-.11552-.0129.18593-.13934.2789-.2089 .63864-.52498 1.01414-1.2523 1.3406-1.99462 .37548-.88784.49977-1.84948.62205-2.79778 .0792-.70908.0417-.35134.11229-1.07325l.68573-.34106c-.07.7232-.0328.36477-.11122,1.07531-.12109.95382-.24275,1.92177-.61264,2.81734-.32324.75033-.694,1.48806-1.3251,2.0303-.7258.56472-1.5393,1.13811-2.49152,1.0728-.96201-.17842-1.79286-.65352-2.51212-1.3154-.97711-.93137-1.80016-1.9841-2.48417-3.15042-.72945-1.32098-1.37069-2.72415-1.56667-4.23414-.12131-1.58539.13204-3.14407.3969-4.70569 .27895-1.69506.6053-3.38559.71789-5.10277 .0822-1.58816.12711-3.18381-.15738-4.75731-.26797-1.37783-.57066-2.75139-1.05349-4.07282-.46018-1.23991-.98787-2.45611-1.71007-3.56958-.74214-1.1467-1.47832-2.30526-2.40171-3.31813-.95286-1.07227-1.92194-2.1286-2.87083-3.20432-.86396-1.1152-1.73483-2.22491-2.54951-3.37726-.89665-1.29919-1.80654-2.5938-2.5483-3.99068-.77818-1.44291-1.49468-2.91369-2.09328-4.44178-.47424-1.27157-.89425-2.56732-1.07585-3.91759-.14514-1.28003-.22149-2.56651-.20011-3.8555 .0831-1.31183.26551-2.6105.55564-3.89378 .26388-1.16661.56107-2.33003 1.02975-3.4341 .43365-.97227.93097-1.92239 1.69382-2.68211 .95677-.881 2.11202-1.56711 3.40636-1.78768 1.2989-.13312 2.539.0988 3.75235.58593 1.2515.48927 2.46753,1.0666 3.61765,1.76428l-.64356.41641z" fill="none" stroke="#000" stroke-linecap="round" stroke-linejoin="round" stroke-width=".85882"/>
<path d="m354.03722,799.44094c1.10437-.8087 2.28248-1.50415 3.50221-2.11336 1.17903-.60461 2.397-.95074 3.6973-.93519 1.33221.17928 1.29549.1855 2.14652.82093 .81473.66269 1.37344,1.54723 1.86902,2.46145 .53971,1.04315.9095,2.16454 1.24592,3.29252 .36869,1.24173.63355,2.50964.79903,3.8009 .10349,1.27411.10671,2.55651.0414,3.83916-.0956,1.35452-.43392,2.67958-.8277,3.98617-.50318,1.57674-1.12808,3.10858-1.81639,4.61902-.65483,1.46172-1.48445,2.8388-2.30008,4.2194-.74344,1.22741-1.54606,2.41798-2.34073,3.61374-.88373,1.16365-1.7856,2.31241-2.67204,3.4741-.86309,1.10481-1.53012,2.33512-2.2038,3.55424-.65647,1.18561-1.11214,2.45341-1.49872,3.73791-.40377,1.36641-.62421,2.76625-.8091,4.16689-.1913,1.59823-.0522,3.1854.12689,4.76095 .21512,1.69771.6435,3.34706 1.02718,5.005 .35822,1.5193.70956,3.03661.69234,4.61837-.0977,1.51029-.6494,2.96024-1.29322,4.33792-.60927,1.2222-1.36364,2.34592-2.28052,3.36423-.67252.71968-1.46507,1.27029-2.40952,1.52482-.0253.28552-1.4078-.24452-1.26406-.21019s.24374.18915.38209.15995c.11466-.0247-.19452-.11937-.2917-.17906-.67082-.45614-1.09088-1.14035-1.46283-1.84452-.42989-.84371-.61312-1.78657-.79349-2.71636-.1226-.6965-.0631-.34486-.17799-1.05498l-.70664-.26855c.11422.71147.0552.3591.17713,1.05715 .17949.93539.36051,1.88478.78529,2.73675 .36923.71244.78518,1.40749 1.44952,1.88156 .7604.48669 1.60903.97302 2.55726.8104 .95108-.276 1.75282-.83338 2.4315-1.56488 .92004-1.02578 1.6786-2.15636 2.29113-3.38553 .6485-1.38752 1.20375-2.84767 1.3072-4.36826 .024-1.58786-.3247-3.11075-.68526-4.63538-.38282-1.65579-.81277-3.3022-1.03059-4.99703-.17949-1.56973-.32221-3.15074-.13419-4.74354 .18357-1.39666.40206-2.79264.80392-4.15532 .3842-1.27932.83736-2.54201 1.49133-3.72259 .67186-1.21565 1.33704-2.44246 2.19836-3.54371 .88716-1.1633 1.7915-2.31242 2.67448-3.47875 .79562-1.19684 1.59849-2.38893 2.34255-3.61763 .81705-1.38301 1.64759-2.76286 2.30376-4.22707 .68976-1.51368 1.31613-3.04872 1.82109-4.62863 .39631-1.31224.73692-2.64295.83577-4.00335 .0668-1.28688.0642-2.5731-.0361-3.85181-.16339-1.29506-.42546-2.56683-.79424-3.81227-.33535-1.13219-.70385-2.25781-1.24019-3.30684-.49322-.92167-1.04877-1.81479-1.85817-2.49145-1.01078-.77728-2.20806-1.34054-3.5159-1.42692-1.30707.001-2.53298.35869-3.71646.96729-1.22153.6146-2.40217,1.31308-3.50954,2.12439l.66909.34774z" fill="none" stroke="#000" stroke-linecap="round" stroke-linejoin="round" stroke-width=".85882"/>
<path d="m347.56731,863.8753c-.41865-.50447-.9989-1.86421-1.28939-3.02165s-.84799-2.10442-1.23884-2.10442c-.40974,0-.37734-.62284.0764-1.47088 2.20248-4.11534 3.25834-11.23944 3.87338-26.13421 .63158-15.29528 1.36766-20.14854 4.25791-28.07403 .88394-2.42392 1.83193-3.46042 4.1005-4.4834 3.89612-1.7569 5.38549-1.35349 7.08236,1.9184 3.67559,7.08719 2.27955,14.70919-4.55843,24.88798-6.65445,9.9056-7.35598,11.58342-7.37415,17.63658-.009,2.95221.277,7.48367.63521,10.06991 .57937,4.18297.4575,5.04708-1.10337,7.82428-1.93453,3.44204-3.30315,4.34739-4.4617,2.95144z" fill="#ffe8c6"/>
<path d="m148.5312,865.59166c-2.41862-2.87436-2.284-2.08044-2.33044-13.7437-.0438-11.01325-.61153-12.60759-7.2649-20.40314-5.94032-6.96009-8.78775-13.15953-8.73268-19.01285 .0481-5.11679 1.79608-9.97686 3.87519-10.77467 .66902-.25674 2.71773.14794 4.55265.89919 3.6406,1.49062 3.83806,1.85567 8.71595,16.1131 3.88442,11.35366 4.99245,19.0717 6.1716,42.989 .10113,2.05121-1.51419,6.29233-2.39657,6.29233-.3331,0-1.49895-1.06166-2.5908-2.35926z" fill="#ffe8c6"/>
<path d="m177.87318,690.7817c.11701-.19452.23886-.38602.3638-.57554 .18787-.24717.35214-.51051.51686-.77333 .16897-.28094.32983-.56648.49365-.85041l.0818-.14449 .17477-.0779-.0818.14471c-.16446.28367-.32442.56987-.49337.85101-.16425.2631-.32786.52713-.51663.77374-.12517.18915-.24691.38061-.36399.5747l-.1752.0777z" fill="#808080"/>
<g transform="matrix(2.14706,0,0,2.14706,-485.7322,-223.53609)">
<path d="m335.15906,514.48907c-.0275.38471-.10877.75866-.20017,1.13221-.14747.60132-.28309,1.20605-.4394,1.80515-.16895.62507-.36606,1.24232-.56319,1.859s-.39862,1.23556-.60941,1.84926-.45695,1.20487-.68516,1.8074c-.24728.60838-.49483,1.21697-.76016,1.81776-.26557.58254-.48121,1.18576-.73411,1.77362-.2525.59794-.50897,1.19413-.76571,1.79027-.28443.63298-.55921,1.27059-.81596,1.91534-.24887.62839-.47872,1.26399-.72033,1.89511-.22715.58595-.48283,1.16056-.72717,1.73957-.26574.6177-.54621,1.22878-.82305,1.84153-.28806.63123-.50562,1.28993-.69673,1.95585-.18022.66272-.32628,1.33502-.42013,2.0154-.0798.60438-.0632,1.21488-.0136,1.82067 .0532.53947.23871,1.04654.44507,1.54294 .22568.49995.53043.95262.88404,1.36944 .44762.50068.96532.92952 1.48382,1.35358 .51484.38593 1.04496.75247 1.5835,1.10469 .55658.34427 1.13669.6483 1.73288.91756 .79421.32654 1.60847.60528 2.42392.87418 .8752.27225 1.75786.52144 2.64396.75582 .85145.24048 1.70189.48689 2.57182.65124 .85806.12615 1.7218.16446 2.58536.09 .80178-.0773 1.55524-.36102 2.31018-.62169 .56275-.2017 1.1036-.45982 1.55517-.74875 .40275-.26318.77339-.57278.97038-1.0196 .0975-.3218-.0326-.59257-.22374-.84633-.27528-.31348-.62049-.53843-.99138-.72127-.49334-.20192-1.00031-.3717-1.50597-.54077-.57315-.17847-1.1433-.36786-1.70597-.57709-.58981-.22707-1.1674-.4814-1.7644-.69011-.61203-.1993-1.22464-.39602-1.83241-.60795-.55157-.20541-1.07226-.47874-1.54366-.83049l.30135-.19078c.46992.3482.98864.61871 1.53766.82147 .60781.21183 1.22078.40759 1.83245.608 .59673.20978 1.17437.46463 1.76475.69064 .56284.208 1.13256.3975 1.7054.57611 .50667.17015 1.01561.33883 1.50875.54483 .37425.18744.72318.41658 1.0003.73528 .19688.26319.33191.545.2411.87939-.18789.45582-.55662.77242-.96234,1.03929-.6828.44138-1.40082.82504-2.16871,1.09713-.75611.2611-1.51211.54088-2.3155.61461-.86558.0708-1.73158.0313-2.59098-.0979-.87003-.16695-1.72108-.41303-2.57323-.65333-.88646-.23509-1.76976-.48408-2.64513-.7576-.81629-.26976-1.63177-.5484-2.42624-.87719-.59713-.27099-1.17861-.57602-1.73591-.92217-.53915-.35338-1.0706-.72009-1.58551-1.10789-.51979-.4258-1.03892-.85619-1.48724-1.35908-.35561-.41991-.66216-.87583-.88964-1.37894-.20788-.49966-.39527-1.00986-.45033-1.55275-.0505-.60801-.0686-1.22078.0102-1.82763 .0922-.682.23866-1.35564.41793-2.02 .19037-.6674.40694-1.32775.69455-1.96055 .27636-.61273.55743-1.22331.82338-1.84069 .2438-.57897.49985-1.15313.72767-1.73854 .24297-.63067.47066-1.26728.72019-1.8955 .25592-.6453.53071-1.2832.81551-1.91624 .25638-.59629.51381-1.19208.76566-1.7903 .25457-.58726.46855-1.19122.73398-1.77392 .26663-.59973.51219-1.20872.76101-1.81597 .22736-.6026.48004-1.19571.68558-1.80644s.40766-1.23226.60978-1.84854 .39443-1.23287.56397-1.85728c.15771-.59853.29167-1.20358.43955-1.80458 .0911-.37138.17327-.74215.20367-1.12438l.31812-.16209z" fill="none" stroke="#000" stroke-linecap="round" stroke-linejoin="round" stroke-width=".4"/>
<path d="m335.25387,542.31193c-.18131-.26617-.27939-.57503-.36971-.88094-.13354-.43863-.18213-.89099-.209-1.3464-.0227-.48923.008-.98192.0643-1.46811 .0707-.51457.13665-1.02907.23229-1.53967 .11372-.5453.17421-1.09945.26951-1.64773 .0988-.57664.219-1.14873.33831-1.72135 .12957-.61928.22135-1.24533.30204-1.87256 .0628-.65475.13893-1.30401.27196-1.94835 .12055-.62644.2597-1.24822.40308-1.86973 .11201-.59313.30543-1.16456.48763-1.73841 .11793-.35889.2641-.70647.41178-1.05376l.32404-.149c-.14757.34651-.29475.69276-.41324,1.05068-.18158.57327-.37758,1.14325-.4889,1.73584-.14311.62137-.28368,1.24261-.40343,1.86903-.13383.64349-.21221,1.29155-.27316,1.94588-.0803.62803-.17162,1.25492-.3008,1.87504-.119.57238-.24015,1.14393-.33877,1.72031-.0969.54811-.15518,1.10275-.26929,1.64811-.0961.50988-.16254,1.02352-.23334,1.53747-.0581.48407-.0879.97521-.0671,1.46251 .026.45291.0725.90288.20523,1.33918 .0887.30194.18448.60725.36361.86975l-.30703.18221z" fill="none" stroke="#000" stroke-linecap="round" stroke-linejoin="round" stroke-width=".4"/>
<path d="m338.15183,524.99366c.37059-.14907.74117-.29504 1.11813-.4283 .80364-.29384 1.59576-.61664 2.40302-.90062 1.04043-.3466 2.055-.7614 3.06375-1.18975 .95845-.39106 1.89992-.82357 2.83362-1.27019 .65874-.30293 1.29655-.64823 1.93085-.99826 .63748-.3509 1.23796-.76166 1.83838-1.17117 .56149-.37688 1.09387-.79188 1.59472-1.24572 .47071-.43609.90568-.90164 1.28435-1.41961 .37862-.48881.70801-1.01122 1.0425-1.53015l.16269-.25934 .32629-.14387-.16248.25979c-.33557.5186-.66179,1.0436-1.04173,1.53196-.37682.52094-.81055.98863-1.28155,1.42634-.49999.45562-1.03089.87307-1.5929,1.25034-.60076.40927-1.19954.82306-1.83753,1.17356-.83026.48099-1.66993.94672-2.54223,1.3482-.93448.44527-1.87569.87829-2.83449,1.26886-1.00906.42826-2.02473.84084-3.06516,1.18804-.80692.28523-1.59914.60826-2.40334.90092-.37678.13351-.7465.28165-1.11753.42966l.28064-.22069z" fill="none" stroke="#000" stroke-linecap="round" stroke-linejoin="round" stroke-width=".4"/>
<path d="m359.7712,513.29834c.0107.40536.0214.8107.0322,1.21605l.0517,1.94878c.0229.86517.0459,1.73032.0689,2.59549l.0744,2.80048c.0209.93565.0437,1.87048.10311,2.80431 .0576.90969.17205,1.81355.26811,2.71891 .07.85524.19027,1.70228.32821,2.54647 .13902.8508.31333,1.69342.46271,2.54197 .12369.81702.30877,1.61888.48622,2.42222 .16933.78188.35835,1.55775.52081,2.34163 .18339.7191.31888,1.45335.50751,2.17037 .18998.69784.4026,1.38791.63637,2.06819l.63568,1.88523c.21532.63794.40146,1.28705.59493,1.93366 .1576.57563.36122,1.13124.66394,1.62638 .22005.34663.53381.5524.86673.72383 .36787.16309.75607.21697 1.14608.235 .43059-.0006.85203-.0907 1.27304-.18011 .45802-.10304.88655-.3126 1.32143-.49837 .50826-.23504 1.02275-.45144 1.52883-.69271 .57217-.28371 1.16973-.49021 1.77051-.67782 .63051-.21052 1.27878-.31354 1.93504-.32517 .64025-.0171 1.26725.1197 1.88576.29949 .64934.19595 1.25342.52396 1.829.91719 .59654.39769 1.15571.85966 1.70566,1.33652 .47393.43013.92442.89329 1.32877,1.40933 .39006.47633.74996.98161 1.06934,1.52278 .31759.5521.54826,1.15815.7532,1.77361 .20439.64418.40048,1.29082.56946,1.94832 .17062.6768.29542,1.36658.40819,2.05829 .13126.70224.17274,1.41461.17608,2.12983 .0137.74143-.0677,1.47408-.18141,2.20067-.11268.69231-.31686,1.35381-.53847,2.00714-.22995.64007-.50798,1.25038-.83983,1.82703-.33133.57274-.69619,1.11043-1.12441,1.59046-.38312.46285-.82186.84847-1.2924,1.18485-.57392.42726-1.20685.72733-1.84281,1.00864-.63446.26809-1.29201.4509-1.95302.61018-.7351.16757-1.47757.28623-2.21541.43683-.73761.1574-1.47989.2825-2.22387.3943-.72752.10746-1.45753.19181-2.18804.26927-.72613.0578-1.44717.16933-2.16965.26563-.81755.10759-1.63792.18455-2.45847.25726-.80589.0704-1.61261.12892-2.41949.18377-.79604.053-1.59258.0959-2.3892.13665-.77013.0489-1.54208.0251-2.31196-.0284-.81684-.0449-1.6308-.13946-2.44581-.21645-.8235-.10185-1.64638-.2096-2.47089-.29949-.75747-.0817-1.51652-.13824-2.27589-.18646-.71387-.0442-1.4283-.0711-2.14278-.093-.68712-.0203-1.37438-.0295-2.0616-.0357-.6708-.005-1.34159-.004-2.01234-.0009-.66476.004-1.32949.0113-1.99418.0205-.71818.009-1.43627.024-2.15435.0382l-2.33724.0514-2.50593.0614-2.79674.0724-2.78282.073-2.4695.0655-2.3475.0632c-.73969.0376-1.47899.028-2.21908.004-.82034-.019-1.64012-.072-2.45836-.14598-.93209-.0836-1.86409-.16101-2.79059-.31122-.79204-.0982-1.55137-.35481-2.29872-.66332-.61463-.25939-1.19702-.59912-1.76022-.98177-.52597-.36832-.98645-.82974-1.43784-1.30715-.41684-.44252-.81609-.89875-1.14829-1.42883-.33402-.56173-.63669-1.14869-.92575-1.74223-.28474-.59031-.49491-1.22019-.6817-1.85786-.18666-.65473-.32031-1.32633-.44101-2.00005-.1211-.69209-.20993-1.39053-.29108-2.08976-.0764-.71347-.15418-1.42757-.18849-2.14526-.0213-.69075.0102-1.38423.0666-2.07151 .0379-.66549.20302-1.30134.39042-1.92675 .19818-.62853.50325-1.19436.85768-1.71907 .35379-.53017.79328-.96104 1.26645-1.34254 .59203-.47396 1.24955-.80545 1.91662-1.11072 .61476-.27654 1.25044-.48339 1.89016-.66907 .63122-.17935 1.27158-.31148 1.9134-.43094 .61398-.10599 1.22083-.25745 1.83213-.38133s1.22059-.21252 1.83379-.29483c.41439-.0548.82979-.099 1.24528-.14185l-.25352.22703c-.41533.043-.83056.0875-1.24478.14264-.61282.0827-1.22489.1741-1.83261.29652s-1.21824.27551-1.83238.38091c-.6413.12019-1.28111.25304-1.91166.43345-.63892.18677-1.27376.39487-1.88746.67287-.49292.22711-.99937.4612-1.37243.73216-.47424.37771-.91558.80451-1.27034,1.33248-.35607.52041-.66213,1.08279-.86228,1.70804-.18829.62259-.35542,1.25573-.39393,1.91892-.0579.68546-.0884,1.37752-.069,2.06663 .033.71688.11141,1.43004.18726,2.1427 .0808.69845.16934,1.3961.28996,2.08746 .12016.67235.25316,1.34263.43906,1.99611 .18581.63562.39491,1.26351.67858,1.85189 .28842.59231.59043,1.17809.92384,1.73859 .33116.52775.7296.98157 1.1447,1.42243 .44977.47571.90946.9345 1.43401,1.3006 .56221.38048 1.14329.71858 1.75662.97608 .74602.30704 1.50457.55911 2.29471.65721 .92621.14843 1.85775.22593 2.78937.30944 .81801.0729 1.63744.12575 2.4575.1444 .73975.024 1.47871.0316 2.21805-.005l2.3475-.0632 2.46943-.0654 2.78274-.073 2.79687-.0724 2.50599-.0614c.77908-.0183 1.5582-.0355 2.33733-.0513l2.15451-.0381c.66478-.008 1.3295-.0168 1.99434-.0203l2.01256.001 2.06197.0363c.71465.0222 1.42928.0494 2.14333.0939 .75959.0485 1.51889.10563 2.27659.18766 .82438.0903 1.6471.19867 2.47063.29915 .81485.0773 1.62872.17071 2.44543.21571 .76924.0526 1.54047.0747 2.30987.0255 .79655-.041 1.59299-.0841 2.38892-.13706 .80677-.055 1.61335-.11361 2.41911-.18424 .82032-.0729 1.64046-.15039 2.45776-.25845 .72258-.0967 1.4439-.20668 2.17014-.26495 .73027-.0777 1.46-.16241 2.18726-.27038 .74367-.11236 1.48559-.23831 2.22297-.3956 .73771-.15017 1.48016-.26831 2.21478-.43778 .66009-.16057 1.31678-.34452 1.94982-.61488 .45343-.20197.88415-.45031 1.3297-.66959 .014-.006-.0213.0249-.032.0373 .47171-.33297.91266-.71463 1.29517-1.1775 .43024-.47649.79604-1.01145 1.12731-1.58329s.61183-1.18185.84281-1.81991c.22226-.65117.4273-1.3105.54134-2.0007 .11418-.72461.19846-1.45502.18417-2.19467-.003-.71317-.0428-1.42363-.17325-2.12394-.11238-.69056-.23656-1.37925-.40656-2.05498-.16844-.65669-.36419-1.30244-.56819-1.94578-.20373-.61291-.43304-1.21652-.74929-1.76621-.31865-.5397-.67799-1.04328-1.06696-1.51843-.40336-.51388-.85268-.97519-1.32532-1.40339-.54904-.47609-1.10802-.93616-1.70358-1.33311-.57407-.39006-1.17642-.71528-1.82363-.90836-.61702-.17734-1.24242-.31091-1.88064-.29158-.65479.0158-1.3012.12132-1.93009.33238-.60006.1888-1.1965.39721-1.76799.68146-.50666.23997-1.02083.4578-1.52962.69176-.43529.18672-.86569.39325-1.32498.49338-.42226.0894-.84571.17681-1.27753.17352-.39282-.0205-.78407-.0785-1.15337-.24645-.33704-.17628-.65367-.38855-.87634-.74056-.30404-.49827-.51022-1.05634-.66851-1.63545-.19361-.64613-.37906-1.29508-.5944-1.93256-.20921-.6295-.42429-1.25632-.63548-1.8849-.23438-.68109-.44711-1.37218-.63767-2.07086-.18963-.71744-.32427-1.45276-.50848-2.17235-.16219-.78379-.35114-1.55945-.52055-2.34116-.1775-.80391-.36337-1.6062-.48699-2.42381-.14921-.84875-.32356-1.69155-.46291-2.54245-.13826-.84486-.25965-1.69249-.32924-2.54856-.0961-.90593-.21064-1.81031-.26883-2.72051-.0595-.9343-.0831-1.86955-.10384-2.80567l-.0744-2.80049-.069-2.59542-.0518-1.94869-.0324-1.21587 .28296-.17646z" fill="none" stroke="#000" stroke-linecap="round" stroke-linejoin="round" stroke-width=".38791"/>
<path d="m351.93746,543.56998c-.34499.11216-.69575.20593-1.04353.3095-.55895.1502-1.11535.3083-1.67265.46462-.57691.13881-1.14489.31046-1.71977.45715-.59965.15056-1.20956.25299-1.82068.34349-.42357.0571-.21117.0298-.6372.0821l.28588-.21313c.42569-.0528.21346-.0252.63668-.0828 .61047-.0913 1.21967-.19471 1.81849-.34644 .57447-.14769 1.14284-.31765 1.71926-.45782 .55707-.15693 1.11406-.31287 1.6724-.46507 .34758-.10288.6987-.1954 1.04176-.31228l-.28064.22068z" fill="none" stroke="#000" stroke-linecap="round" stroke-linejoin="round" stroke-width=".4"/>
<path d="m341.99726,550.48743c.42939.0979.85458.21937 1.28559.31533 .58987.12784 1.18763.21272 1.78608.28817 .6306.0806 1.26268.13542 1.89829.14463 .60045.007 1.19876-.0623 1.79665-.11007 .58909-.0767 1.17672-.16297 1.76673-.23267 .62124-.0938 1.24146-.19035 1.85726-.31512 .57348-.0973 1.12775-.27937 1.64881-.53593-.0262.0134-.10121.0591-.0785.0403 .34424-.28418.63696-.53344.90526-.89686 .31159-.44654.51462-.95187.693-1.46273 .18291-.56.31983-1.13448.40794-1.71675 .0822-.55455-.0662-1.08511-.2056-1.61544-.17937-.51344-.31919-1.03902-.48074-1.55788-.18163-.53923-.31983-1.09078-.43827-1.64684l-.0567-.29353 .31461-.16792 .0564.29293c.11784.55508.25532,1.10572.43671,1.64391 .16215.51921.30107,1.04563.48152,1.55929 .14066.53442.29195,1.06918.21221,1.62831-.0862.58432-.22355,1.1605-.40506,1.72272-.17745.51354-.37933,1.02166-.68861,1.47239-.38305.52811-.83365.93857-1.4329,1.22056-.52439.25206-1.0797.43184-1.65431.52875-.61632.12411-1.23722.22013-1.85901.31281-.59015.0703-1.17785.15799-1.76754.23158-.5985.048-1.19751.1162-1.79866.10731-.63634-.0107-1.26924-.0672-1.90057-.14783-.59915-.0762-1.19761-.16189-1.78805-.29087-.43073-.0966-.85527-.21921-1.28544-.31447l.29293-.20411z" fill="none" stroke="#000" stroke-linecap="round" stroke-linejoin="round" stroke-width=".4"/>
<path d="m352.38226,543.44034c.0616-.041.12088-.0855.17824-.13219 .0969-.0808.20165-.15127.30409-.22475l.3501-.25937c.11518-.0829.22285-.17472.32641-.27156 .10134-.0926.20165-.18637.29513-.28698l.28403-.30526c.0919-.10332.17644-.21257.26256-.3206s.16594-.2365.2355-.3629l.0814-.0364c-.0693.12687-.14472.25101-.23487.3643s-.17052.21764-.26232.32116l-.28402.30529c-.0931.10111-.19341.19498-.29488.28757-.10328.0973-.2109.18941-.32601.2726l-.35007.25943c-.10249.0733-.20709.14389-.30427.22418-.0569.0473-.11622.092-.17804.13254l-.0829.033z" fill="none" stroke="#000" stroke-linecap="round" stroke-linejoin="round" stroke-width=".4"/>
<path d="m321.48146,546.44706c.0947.0166.19075.0231.28648.0301 .14148.01.28318.0161.42488.0216 .18086.007.36183.0101.54279.0132 .24554.005.49121.003.73665.0114l.72253.0355c.22161.008.44317.0214.66499.0213l.61462-.019c.19539-.0137.38921-.0437.58356-.0674 .18778-.0268.37285-.0697.55651-.11642 .17022-.0387.33299-.10273.499-.15569 .15203-.0524.30201-.11093.44968-.17451l.0701-.0335c.0677-.0348.13447-.0733.20099-.11046s.0878-.0441.0502-.0334l.0831-.0324c-.1544.0946-.31051.18752-.4743.26504l-.45019.17384c-.16598.0532-.32898.11675-.49933.15525-.18386.0466-.36918.0892-.55718.11551-.19444.0238-.38836.0538-.58389.067l-.61493.0185c-.22188-.00039-.44352-.013-.6652-.0216l-.72246-.0354c-.24544-.008-.49107-.006-.73659-.0112l-.54295-.0133-.42508-.0218c-.096-.007-.19236-.0137-.28718-.031l.0732-.051z" fill="none" stroke="#000" stroke-linecap="round" stroke-linejoin="round" stroke-width=".4"/>
<path d="m337.97966,542.83099-.39496-.10285c-.17057-.0517-.34363-.0925-.51847-.12665-.18263-.0385-.36321-.0856-.54529-.12639l-.56444-.15489c-.16704-.0501-.33236-.10485-.49184-.17558-.1024-.0455-.2037-.0934-.30353-.14431l.0745-.0489 .30326.14391c.15939.0702.32452.12467.49126.17475 .18618.0578.37448.10876.56403.15429 .18197.041.36254.0879.54515.12619 .1749.0344.34792.0757.51872.12698l.39467.10224-.0731.0513z" fill="#fca" stroke="#000" stroke-linecap="round" stroke-linejoin="round" stroke-width=".4"/>
<path d="m337.1271,548.92364c-3.77032-1.06467-6.4596-2.31435-8.12268-3.77456-3.38363-2.97086-3.24807-4.555 1.33384-15.58673 1.88805-4.54584 3.86805-9.8136 4.39999-11.70614 .72786-2.58963 1.09277-3.39277 1.47488-3.24614 1.40133.53774 8.32757.96676 12.98562.80435l5.24907-.18302-.57768.88164c-1.42063,2.16817-6.66472,5.11844-13.55353,7.62509l-3.27592,1.19202-.54207,1.98438c-.75256,2.75491-2.01839,10.39291-2.06496,12.45993-.0579,2.56946.2394,3.16318 1.72327,3.44155 .70952.13311 1.62895.46408 2.04319.7355s2.3552,1.07341 4.31325,1.78219c5.21423,1.88748 5.4704,2.24042 2.59702,3.57817-2.33111,1.08528-4.172,1.088-7.98329.0118z" fill="#ffe8c6"/>
<path d="m344.56845,550.64928c-.2643-.1208.29359-.57876 1.34067-1.10055 2.19197-1.0923 2.72546-2.35396 1.43666-3.39756-.45029-.36463-.75577-.7071-.67884-.76105s1.42038-.40696 2.98543-.78448c1.90158-.45869 3.21359-1.00954 3.955-1.66051l1.10945-.97411 .4569,1.78271c.81772,3.19059-.25825,5.6819-2.75814,6.38619-1.56464.4408-7.19721.80642-7.84713.50936z" fill="#ffe8c6"/>
<path d="m358.25038,570.71613c-.69448-.0626-2.00136-.19978-2.90419-.30476-4.42649-.51469-9.32037-.57019-21.27633-.24132-9.40104.2586-13.46673.17103-15.84677-.3413-2.93293-.63134-5.22226-2.50025-6.68475-5.45712-1.11035-2.24488-1.7544-5.51389-1.75843-8.92523-.003-2.82301.47704-4.23886 1.93073-5.69054 1.22231-1.22062 2.43727-1.68494 6.95439-2.65776 1.19417-.25718 1.61422-.28231 4.23001-.25307 3.10124.0347 3.73611-.0395 4.76629-.55695l.61091-.30684 .85243.62c1.80799,1.31502 3.34622,1.97741 7.02863,3.02664 2.78797.79438 3.13255.87325 4.24458.97146 .51285.0453 1.01768.15553 1.12185.24495 .33873.29078 2.88932.70948 4.73509.7773 1.40573.0516 2.15567.009 3.66181-.20788 3.10821-.44773 4.14647-.79992 5.03127-1.70667 .94766-.97117 1.70712-3.17988 1.55948-4.53532-.0836-.76762-1.12968-4.45466-1.31699-4.64197-.18109-.1811-.57771.0854-.76845.51628-.15074.34056-1.2455,1.49196-1.7274,1.81679-.34768.23436-4.65651,1.40638-6.12405,1.66576-.65975.11662-1.35145.2918-1.5371.38931-.31013.16288-.45374.13536-1.76777-.33869-.78662-.28379-1.99843-.71552-2.69291-.95941s-1.54679-.60215-1.89403-.79614-.94386-.42192-1.32583-.5065c-1.79016-.39643-1.7971-.40289-2.02772-1.88928-.15537-1.00141-.0797-1.71398.57717-5.43706 .23894-1.35423.51859-3.06575.62145-3.80337 .23482-1.68392.72142-3.84265 1.10394-4.89742l.29337-.80898 3.0936-1.16206c6.61738-2.4857 10.645-4.64225 12.77117-6.83819 .63609-.65696 2.04733-2.51242 2.15375-2.83169 .0226-.0677.7506-.28105 1.61786-.47413l1.57683-.35105 .0788.45035c.0434.2477.11649,2.24022.1625,4.42783 .16778,7.9779.61153,11.64347 2.28268,18.85619 .50749,2.19034 2.4452,8.54274 2.83892,9.30684 .53072,1.02999 1.71561,1.61363 2.95651,1.4563 .89888-.11397 1.26996-.24195 3.40092-1.17295 3.11605-1.36136 4.57847-1.46895 6.58864-.48473 1.87468.91789 4.26956,3.29021 5.10345,5.05537 1.23505,2.61434 1.9256,6.79138 1.5291,9.2493-.49004,3.03771-2.26626,5.89009-4.3101,6.92144-1.19316.6021-2.13822.87346-4.78469,1.37388-5.31164,1.00438-13.66145,1.72923-16.73066,1.45239z" fill="#ffa52a" stroke="#666" stroke-linecap="round" stroke-linejoin="round" stroke-width=".01313"/>
</g>
<path d="m435.37574,525.94641a8.46003,3.15673 0 1,1 -16.92006,0 8.46003,3.15673 0 1,1 16.92006,0z" fill="#ffb9a3" transform="matrix(2.56366,0,0,2.83412,-767.9591,-651.04287)"/>
<path d="m435.37574,525.94641a8.46003,3.15673 0 1,1 -16.92006,0 8.46003,3.15673 0 1,1 16.92006,0z" fill="#ffb9a3" transform="matrix(2.82002,0,0,2.83412,-1033.0212,-649.41624)"/>
<path d="m248.39878,880.86869c-3.58482-.35107-10.4861-1.37023-15.33616-2.26483s-16.40969-2.13083-25.68804-2.74721c-19.60001-1.30204-21.74188-1.5572-29.74316-3.54323-8.02909-1.99294-13.73492-4.80944-17.85466-8.81336-4.06398-3.94976-4.92852-5.93993-4.92852-11.34574v-4.05522l4.02574,1.08925c6.07166,1.64278 22.63156.95059 28.09572-1.17438 5.14122-1.99939 7.75254-4.37595 7.75254-7.05561 0-7.37711-20.08541-11.0981-38.91548-7.2094-2.25646.466-2.49218.34245-2.49268-1.30651-.001-3.4508-3.88708-15.98522-9.61718-31.02025-5.97817-15.68583-8.48583-23.9959-9.28458-30.76782-.44066-3.73588-.32741-4.11046 1.77854-5.8825 1.23705-1.04089 4.6325-5.45656 7.54544-9.81258s7.90653-10.55762 11.09687-13.7813c7.13499-7.20955 9.93076-8.25023 23.8306-8.87033 11.12307-.49625 17.92101.66284 34.83371,5.93927 14.49895,4.52341 21.65288,5.5839 34.5179,5.117 15.19666-.55151 26.32087-3.83057 47.92548-14.12684 10.84274-5.16742 12.23908-5.60544 18.06638-5.6673 12.38631-.1314 31.0388,12.05513 40.23962,26.29057 1.70387,2.63623 3.49684,5.03965 3.98437,5.34097 .67042.41434.66587,3.69077-.0193,13.44605-.96088,13.693-2.17199,19.61206-6.6384,32.44371-3.37421,9.69396-5.02397,18.75585-5.02397,27.59635v6.68357l-3.64232-1.79642c-11.50354-5.67364-34.70993-3.0449-37.74205,4.27529-.90825,2.19271-.85406,2.67363.50877,4.51404 4.77339,6.44634 26.89267,8.40773 37.21615,3.30008 2.88724-1.4285 2.89263-1.42814 2.88355.19796-.0129,2.39075-1.86101,8.92724-3.32127,11.74966-1.83436,3.54553-5.5041,6.00643-11.62237,7.79384-16.7924,4.9058-43.15368,11.99915-50.52752,13.59607-9.63732,2.08709-22.16946,2.82053-31.9043,1.86717zm10.32962-17.49016c2.50049-1.2615 11.14099-9.21344 11.14099-10.25314 0-1.50515-1.84737-.40938-5.54697,3.29025-4.96858,4.96857-9.61437,7.13249-14.01731,6.52899-4.76856-.65358-11.10269-3.22267-16.42167-6.6605-5.29903-3.42493-5.42167-3.4686-5.42167-1.93083 0,1.58848 4.24596,4.61085 10.39336,7.39821 8.21687,3.72571 14.66675,4.25376 19.87327,1.62702zm-56.93105-38.09443c6.42671-1.36196 11.83913-3.71787 14.5872-6.3495 4.1023-3.92848 1.94431-4.55755-2.52145-.73505-4.0439,3.46145-10.36038,5.34528-19.26105,5.74442-8.73306.39165-14.18875-1.07364-22.37021-6.0081-5.35368-3.22896-6.64829-3.62735-6.64829-2.04595 0,1.07198 6.19264,5.05658 11.11871,7.15424 7.89816,3.36327 16.26886,4.11042 25.09509,2.23994zm106.05961-1.5652c6.06792-1.52865 15.57914-6.3976 17.44305-8.92942 2.36636-3.2143 1.19952-4.44233-1.42127-1.49575-7.14651,8.03495-23.57258,11.51813-36.1003,7.65514-2.89119-.89151-6.8843-2.44431-8.87357-3.45063-4.27332-2.16181-4.43463-2.18498-4.43463-.63708 0,1.38011 6.57521,4.60115 13.41914,6.57374 5.77293,1.66389 14.02419,1.78125 19.96758.284z" fill="#ffe8c6"/>
</g>
</svg>
